<svg width="61" height="23" viewBox="0 0 61 23" fill="none" xmlns="http://www.w3.org/2000/svg">
<path d="M0.5 22.1292V0.5H3.52809V22.1292H0.5ZM3.1264 12.8596V10.0787H12.3034V12.8596H3.1264ZM3.1264 3.2809V0.5H13.6011V3.2809H3.1264Z" fill="white"/>
<path d="M15.73 22.1292V0.5H18.6654V22.1292H15.73Z" fill="white"/>
<path d="M28.7867 22.5C27.2418 22.5 25.8822 22.1601 24.7081 21.4803C23.5339 20.78 22.6069 19.8221 21.9272 18.6067C21.268 17.3914 20.9384 15.9906 20.9384 14.4045C20.9384 12.8184 21.268 11.4176 21.9272 10.2022C22.5863 8.98689 23.503 8.03933 24.6772 7.35955C25.8513 6.65918 27.2006 6.30899 28.7249 6.30899C30.2493 6.30899 31.5985 6.65918 32.7727 7.35955C33.9468 8.03933 34.8635 8.98689 35.5227 10.2022C36.1818 11.4176 36.5114 12.8184 36.5114 14.4045C36.5114 15.9906 36.1818 17.3914 35.5227 18.6067C34.8635 19.8221 33.9468 20.78 32.7727 21.4803C31.6191 22.1601 30.2905 22.5 28.7867 22.5ZM28.7867 19.8118C29.7137 19.8118 30.5376 19.5852 31.2586 19.132C31.9796 18.6582 32.5358 18.0197 32.9272 17.2163C33.3391 16.4129 33.5451 15.4757 33.5451 14.4045C33.5451 13.3333 33.3391 12.3961 32.9272 11.5927C32.5358 10.7893 31.9693 10.161 31.2277 9.70787C30.4861 9.23408 29.6519 8.99719 28.7249 8.99719C27.7773 8.99719 26.9431 9.23408 26.2221 9.70787C25.5011 10.161 24.9346 10.7893 24.5227 11.5927C24.1107 12.3961 23.9047 13.3333 23.9047 14.4045C23.9047 15.4757 24.1107 16.4129 24.5227 17.2163C24.9346 18.0197 25.5114 18.6582 26.253 19.132C26.9946 19.5852 27.8391 19.8118 28.7867 19.8118Z" fill="white"/>
<path d="M52.4692 22.1292L57.6912 6.67978H60.6265L55.3737 22.1292H52.4692ZM42.0563 22.1292L47.1855 6.67978H49.8428L44.7754 22.1292H42.0563ZM41.84 22.1292L36.5872 6.67978H39.5535L44.6518 22.1292H41.84ZM52.4692 22.1292L47.4018 6.67978H50.09L55.1883 22.1292H52.4692Z" fill="white"/>
</svg>
