<svg aria-hidden="true" style="position: absolute; width: 0; height: 0; overflow: hidden;" version="1.1" xmlns="http://www.w3.org/2000/svg" xmlns:xlink="http://www.w3.org/1999/xlink">
<defs>
<symbol id="Typev1" viewBox="0 0 162 32">
<title>Typev1</title>
<path d="M20.445 9.348c-1.316-0.879-2.862-1.348-4.445-1.348v-8c3.164 0 6.258 0.938 8.889 2.696s4.682 4.257 5.893 7.181c1.211 2.924 1.528 6.141 0.91 9.244s-2.141 5.955-4.379 8.192c-2.238 2.238-5.089 3.762-8.192 4.379s-6.321 0.3-9.244-0.91c-2.924-1.211-5.422-3.262-7.181-5.893s-2.696-5.725-2.696-8.889h8c0 1.582 0.469 3.129 1.348 4.445s2.128 2.341 3.59 2.946c1.462 0.606 3.070 0.764 4.622 0.455s2.977-1.071 4.096-2.189c1.119-1.119 1.881-2.544 2.189-4.096s0.15-3.16-0.455-4.622c-0.606-1.462-1.631-2.711-2.946-3.59z"></path>
<path d="M8 0c0 1.051-0.207 2.091-0.609 3.061s-0.991 1.853-1.734 2.595c-0.743 0.743-1.625 1.332-2.595 1.734s-2.011 0.609-3.061 0.609v8c2.101 0 4.182-0.414 6.123-1.218s3.705-1.983 5.191-3.468c1.486-1.486 2.664-3.25 3.468-5.191s1.218-4.022 1.218-6.123h-8z"></path>
<path d="M100.495 11.562h-3.882v12.33h3.882v-12.33z"></path>
<path d="M97.046 9.253c0.406 0.406 0.913 0.609 1.522 0.609s1.108-0.203 1.497-0.609c0.39-0.423 0.584-0.93 0.584-1.522 0-0.609-0.194-1.116-0.584-1.522s-0.888-0.609-1.497-0.609-1.116 0.203-1.522 0.609c-0.39 0.406-0.584 0.913-0.584 1.522 0 0.592 0.194 1.099 0.584 1.522z"></path>
<path d="M40.925 23.892v-17.911h3.983v14.41h7.941v3.501h-11.924z"></path>
<path d="M60.022 24.171c-1.268 0-2.419-0.279-3.45-0.837-1.015-0.575-1.818-1.353-2.41-2.334s-0.888-2.080-0.888-3.298 0.296-2.309 0.888-3.273c0.592-0.964 1.395-1.725 2.41-2.283 1.015-0.575 2.165-0.863 3.45-0.863s2.436 0.279 3.45 0.837c1.015 0.558 1.818 1.328 2.41 2.309 0.592 0.964 0.888 2.055 0.888 3.273s-0.296 2.317-0.888 3.298c-0.592 0.981-1.395 1.759-2.41 2.334-1.015 0.558-2.165 0.837-3.45 0.837zM60.022 20.644c0.558 0 1.049-0.118 1.472-0.355 0.423-0.254 0.744-0.6 0.964-1.040 0.237-0.457 0.355-0.973 0.355-1.548s-0.118-1.074-0.355-1.497c-0.237-0.44-0.567-0.778-0.989-1.015-0.406-0.254-0.888-0.381-1.446-0.381-0.541 0-1.023 0.127-1.446 0.381-0.423 0.237-0.753 0.575-0.989 1.015s-0.355 0.947-0.355 1.522c0 0.558 0.118 1.066 0.355 1.522 0.237 0.44 0.567 0.786 0.989 1.040 0.423 0.237 0.905 0.355 1.446 0.355z"></path>
<path d="M69.845 28.712c1.032 0.474 2.224 0.71 3.577 0.71 1.319 0 2.495-0.262 3.526-0.786s1.844-1.252 2.436-2.182c0.592-0.93 0.888-2.030 0.888-3.298v-11.594h-3.806v0.828c-0.283-0.238-0.604-0.438-0.964-0.6-0.66-0.321-1.412-0.482-2.258-0.482-1.133 0-2.14 0.271-3.019 0.812-0.88 0.524-1.573 1.252-2.080 2.182-0.507 0.913-0.761 1.945-0.761 3.095 0 1.133 0.254 2.165 0.761 3.095s1.201 1.666 2.080 2.207c0.879 0.541 1.886 0.812 3.019 0.812 0.829 0 1.581-0.161 2.258-0.482 0.328-0.156 0.624-0.339 0.888-0.55v0.779c0 0.863-0.279 1.531-0.837 2.004-0.541 0.474-1.294 0.71-2.258 0.71-0.778 0-1.446-0.135-2.004-0.406-0.541-0.271-1.032-0.668-1.472-1.192l-2.385 2.385c0.592 0.846 1.395 1.497 2.41 1.954zM75.375 19.706c-0.389 0.237-0.854 0.355-1.395 0.355s-1.015-0.118-1.421-0.355c-0.389-0.237-0.693-0.558-0.913-0.964-0.22-0.423-0.33-0.871-0.33-1.345 0-0.507 0.11-0.964 0.33-1.37s0.533-0.727 0.939-0.964 0.871-0.355 1.395-0.355c0.541 0 1.006 0.118 1.395 0.355 0.406 0.237 0.71 0.558 0.913 0.964 0.22 0.406 0.33 0.863 0.33 1.37s-0.11 0.964-0.33 1.37c-0.203 0.389-0.507 0.702-0.913 0.939z"></path>
<path d="M88.441 24.171c-1.269 0-2.419-0.279-3.45-0.837-1.015-0.575-1.818-1.353-2.41-2.334s-0.888-2.080-0.888-3.298 0.296-2.309 0.888-3.273c0.592-0.964 1.395-1.725 2.41-2.283 1.014-0.575 2.165-0.863 3.45-0.863s2.435 0.279 3.45 0.837c1.015 0.558 1.818 1.328 2.41 2.309 0.592 0.964 0.888 2.055 0.888 3.273s-0.296 2.317-0.888 3.298c-0.592 0.981-1.395 1.759-2.41 2.334-1.014 0.558-2.165 0.837-3.45 0.837zM88.441 20.644c0.558 0 1.048-0.118 1.471-0.355 0.422-0.254 0.744-0.6 0.964-1.040 0.237-0.457 0.355-0.973 0.355-1.548s-0.118-1.074-0.355-1.497c-0.237-0.44-0.566-0.778-0.99-1.015-0.406-0.254-0.888-0.381-1.446-0.381-0.542 0-1.024 0.127-1.446 0.381-0.423 0.237-0.753 0.575-0.99 1.015s-0.355 0.947-0.355 1.522c0 0.558 0.118 1.066 0.355 1.522 0.237 0.44 0.566 0.786 0.99 1.040 0.422 0.237 0.905 0.355 1.446 0.355z"></path>
<path d="M109.825 24.146c-0.828 0-1.59-0.161-2.283-0.482-0.365-0.169-0.694-0.371-0.989-0.606v6.035h-3.831v-17.531h3.882v0.851c0.282-0.23 0.594-0.429 0.938-0.597 0.694-0.338 1.455-0.507 2.283-0.507 1.167 0 2.199 0.279 3.095 0.837 0.914 0.558 1.624 1.319 2.131 2.283 0.525 0.964 0.786 2.063 0.786 3.298s-0.262 2.334-0.786 3.298c-0.507 0.964-1.218 1.725-2.131 2.283-0.896 0.558-1.928 0.837-3.095 0.837zM109.115 20.644c0.558 0 1.040-0.127 1.446-0.381 0.423-0.254 0.753-0.6 0.99-1.040s0.355-0.939 0.355-1.497c0-0.575-0.118-1.082-0.355-1.522s-0.566-0.778-0.99-1.015c-0.406-0.254-0.879-0.381-1.421-0.381s-1.023 0.127-1.446 0.381c-0.406 0.237-0.727 0.575-0.964 1.015s-0.355 0.947-0.355 1.522c0 0.558 0.11 1.057 0.33 1.497 0.237 0.44 0.566 0.786 0.99 1.040s0.896 0.381 1.421 0.381z"></path>
<path d="M119.637 23.917c0.71 0.186 1.429 0.279 2.156 0.279 1.539 0 2.757-0.355 3.654-1.066 0.913-0.71 1.37-1.666 1.37-2.867 0-0.778-0.143-1.404-0.431-1.877-0.287-0.49-0.659-0.88-1.116-1.167s-0.939-0.516-1.446-0.685c-0.507-0.169-0.99-0.313-1.446-0.431s-0.829-0.254-1.117-0.406c-0.287-0.152-0.431-0.355-0.431-0.609 0-0.237 0.11-0.414 0.33-0.533 0.22-0.135 0.55-0.203 0.99-0.203 0.457 0 0.922 0.093 1.395 0.279 0.49 0.186 0.93 0.507 1.319 0.964l2.207-2.233c-0.558-0.71-1.285-1.243-2.182-1.598-0.879-0.372-1.843-0.558-2.892-0.558-0.998 0-1.869 0.169-2.613 0.507s-1.32 0.803-1.726 1.395c-0.406 0.575-0.609 1.26-0.609 2.055 0 0.744 0.144 1.362 0.431 1.852 0.287 0.474 0.66 0.846 1.116 1.116s0.939 0.482 1.446 0.634c0.507 0.152 0.99 0.296 1.446 0.431 0.456 0.118 0.829 0.262 1.116 0.431 0.305 0.152 0.457 0.381 0.457 0.685 0 0.237-0.127 0.423-0.381 0.558-0.237 0.135-0.583 0.203-1.040 0.203-0.66 0-1.269-0.118-1.826-0.355-0.558-0.254-1.041-0.6-1.446-1.040l-2.207 2.233c0.423 0.457 0.93 0.863 1.522 1.218 0.609 0.338 1.26 0.6 1.954 0.786z"></path>
<path d="M133.894 24.171c-1.133 0-2.139-0.228-3.018-0.685-0.863-0.474-1.539-1.116-2.030-1.928-0.491-0.829-0.736-1.776-0.736-2.841v-7.154h3.882v7.104c0 0.423 0.067 0.786 0.203 1.091 0.152 0.304 0.372 0.541 0.659 0.71s0.634 0.254 1.040 0.254c0.575 0 1.032-0.178 1.37-0.533 0.338-0.372 0.507-0.879 0.507-1.522v-7.104h3.882v7.129c0 1.082-0.245 2.038-0.736 2.867-0.49 0.812-1.166 1.455-2.030 1.928-0.862 0.457-1.86 0.685-2.994 0.685z"></path>
<path d="M145.465 11.562h-3.882v12.33h3.882v-7.205c0-0.423 0.085-0.778 0.254-1.066 0.186-0.288 0.432-0.507 0.736-0.66 0.305-0.169 0.651-0.254 1.040-0.254 0.558 0 1.023 0.178 1.395 0.533 0.39 0.338 0.584 0.82 0.584 1.446v7.205h3.882v-7.205c0-0.423 0.085-0.778 0.254-1.066 0.186-0.288 0.431-0.507 0.736-0.66 0.304-0.169 0.651-0.254 1.040-0.254 0.558 0 1.023 0.178 1.395 0.533 0.389 0.338 0.583 0.82 0.583 1.446v7.205h3.882v-7.636c0-1.032-0.22-1.911-0.66-2.638-0.423-0.744-1.006-1.311-1.75-1.7-0.727-0.406-1.565-0.609-2.512-0.609-0.964 0-1.835 0.211-2.613 0.634-0.506 0.269-0.947 0.617-1.326 1.043-0.353-0.446-0.782-0.81-1.288-1.094-0.676-0.389-1.446-0.584-2.308-0.584-0.914 0-1.734 0.195-2.461 0.584-0.317 0.162-0.604 0.356-0.863 0.582v-0.911z"></path>
</symbol>
<symbol id="Typev" viewBox="0 0 144 32">
<title>Typev</title>
<path d="M43.566 21.39h9.083v-2.472h-6.083v-11.708h-3v14.18z"></path>
<path d="M58.804 21.598c3.229 0 5.238-2.209 5.238-5.484 0-3.296-2.009-5.498-5.238-5.498s-5.238 2.202-5.238 5.498c0 3.275 2.009 5.484 5.238 5.484zM58.817 19.313c-1.49 0-2.252-1.364-2.252-3.22s0.762-3.226 2.252-3.226c1.462 0 2.224 1.371 2.224 3.226s-0.762 3.22-2.224 3.22z"></path>
<path d="M70.17 25.6c3.042 0 5.203-1.385 5.203-4.106v-10.739h-2.931v1.786h-0.111c-0.395-0.866-1.261-1.925-3.042-1.925-2.335 0-4.309 1.814-4.309 5.435 0 3.538 1.919 5.186 4.316 5.186 1.697 0 2.647-0.852 3.035-1.731h0.125v1.946c0 1.461-0.935 2.029-2.217 2.029-1.303 0-1.961-0.568-2.203-1.212l-2.73 0.367c0.353 1.676 1.995 2.963 4.864 2.963zM70.232 19.022c-1.448 0-2.238-1.149-2.238-2.984 0-1.807 0.776-3.074 2.238-3.074 1.434 0 2.238 1.212 2.238 3.074 0 1.876-0.818 2.984-2.238 2.984z"></path>
<path d="M81.945 21.598c3.229 0 5.238-2.209 5.238-5.484 0-3.296-2.009-5.498-5.238-5.498s-5.238 2.202-5.238 5.498c0 3.275 2.009 5.484 5.238 5.484zM81.958 19.313c-1.49 0-2.251-1.364-2.251-3.22s0.762-3.226 2.251-3.226c1.462 0 2.224 1.371 2.224 3.226s-0.762 3.22-2.224 3.22z"></path>
<path d="M88.517 21.39h2.951v-10.635h-2.951v10.635zM89.999 9.384c0.88 0 1.601-0.672 1.601-1.495 0-0.817-0.721-1.489-1.601-1.489-0.873 0-1.594 0.672-1.594 1.489 0 0.824 0.721 1.495 1.594 1.495z"></path>
<path d="M93.247 25.378h2.951v-5.692h0.090c0.409 0.886 1.302 1.876 3.020 1.876 2.426 0 4.317-1.918 4.317-5.477 0-3.656-1.974-5.47-4.31-5.47-1.78 0-2.632 1.059-3.027 1.925h-0.132v-1.786h-2.91v14.623zM96.136 16.073c0-1.897 0.804-3.109 2.238-3.109 1.463 0 2.239 1.267 2.239 3.109 0 1.856-0.79 3.143-2.239 3.143-1.419 0-2.238-1.246-2.238-3.143z"></path>
<path d="M113.863 13.788c-0.264-1.959-1.843-3.171-4.531-3.171-2.723 0-4.518 1.26-4.511 3.31-0.006 1.593 0.998 2.624 3.077 3.040l1.843 0.367c0.928 0.187 1.351 0.526 1.365 1.059-0.014 0.63-0.699 1.080-1.732 1.080-1.054 0-1.753-0.45-1.933-1.316l-2.903 0.152c0.277 2.036 2.009 3.289 4.829 3.289 2.757 0 4.732-1.406 4.739-3.504-0.007-1.537-1.012-2.458-3.076-2.88l-1.927-0.388c-0.99-0.215-1.357-0.554-1.35-1.066-0.007-0.637 0.713-1.052 1.627-1.052 1.026 0 1.635 0.561 1.781 1.246l2.702-0.166z"></path>
<path d="M122.203 16.862c0.007 1.426-0.97 2.174-2.030 2.174-1.115 0-1.835-0.782-1.842-2.036v-6.245h-2.951v6.772c0.006 2.486 1.462 4.002 3.602 4.002 1.601 0 2.75-0.824 3.229-2.070h0.11v1.932h2.834v-10.635h-2.951v6.107z"></path>
<path d="M126.93 21.39h2.952v-6.384c0-1.177 0.749-1.959 1.732-1.959 0.97 0 1.621 0.665 1.621 1.71v6.633h2.862v-6.495c0-1.101 0.63-1.849 1.704-1.849 0.942 0 1.649 0.588 1.649 1.772v6.571h2.945v-7.152c0-2.306-1.371-3.621-3.354-3.621-1.559 0-2.771 0.796-3.208 2.015h-0.11c-0.339-1.232-1.428-2.015-2.89-2.015-1.434 0-2.522 0.762-2.965 2.015h-0.125v-1.876h-2.814v10.635z"></path>
<path d="M14.059 1.641h7.388l-2.966 8.283c-5.22 0.917-9.212 5.964-9.212 12.052 0 2.747 0.812 5.281 2.184 7.321h-9.811l8.969-25.048c0.564-1.575 1.929-2.608 3.448-2.608z"></path>
<path d="M26.123 1.641h-7.388l2.953 8.248c5.324 0.815 9.425 5.916 9.425 12.087 0 2.747-0.812 5.281-2.184 7.321h9.611l-8.969-25.048c-0.564-1.575-1.929-2.608-3.448-2.608z"></path>
<path d="M12.741 28.499c-1.263-1.797-2.016-4.062-2.016-6.524 0-5.84 4.238-10.574 9.466-10.574s9.466 4.734 9.466 10.574c0 2.462-0.753 4.727-2.016 6.524-2.073-1.542-4.653-2.457-7.45-2.457s-5.377 0.914-7.45 2.457z"></path>
</symbol>
<symbol id="Typev3" viewBox="0 0 132 32">
<title>Typev3</title>
<path d="M39.815 22.886h9.28v-2.81h-5.982v-10.583h-3.298v13.393z"></path>
<path d="M54.594 21.013c-1.323 0-2.013-1.161-2.013-2.903s0.69-2.922 2.013-2.922c1.323 0 2.031 1.18 2.031 2.922s-0.708 2.903-2.031 2.903zM54.613 23.186c3.075 0 5.087-2.192 5.087-5.076s-2.013-5.076-5.087-5.076c-3.056 0-5.106 2.192-5.106 5.076s2.050 5.076 5.106 5.076z"></path>
<path d="M65.022 26.202c1.416 0 2.665-0.318 3.503-1.068 0.764-0.693 1.267-1.742 1.267-3.184v-8.654h-2.907v1.030h-0.037c-0.559-0.805-1.416-1.311-2.683-1.311-2.367 0-4.007 1.986-4.007 4.795 0 2.941 1.994 4.552 4.137 4.552 1.155 0 1.882-0.468 2.441-1.105h0.074v0.955c0 1.161-0.54 1.836-1.826 1.836-1.006 0-1.509-0.431-1.677-0.937h-2.944c0.298 2.004 2.031 3.091 4.659 3.091zM65.004 20.095c-1.137 0-1.882-0.937-1.882-2.379 0-1.461 0.745-2.398 1.882-2.398 1.267 0 1.938 1.086 1.938 2.379 0 1.349-0.615 2.398-1.938 2.398z"></path>
<path d="M75.771 21.013c-1.323 0-2.013-1.161-2.013-2.903s0.69-2.922 2.013-2.922 2.031 1.18 2.031 2.922c0 1.742-0.708 2.903-2.031 2.903zM75.789 23.186c3.074 0 5.087-2.192 5.087-5.076s-2.012-5.076-5.087-5.076c-3.056 0-5.106 2.192-5.106 5.076s2.050 5.076 5.106 5.076z"></path>
<path d="M81.764 22.886h3.038v-9.591h-3.038v9.591zM81.764 11.966h3.038v-2.473h-3.038v2.473z"></path>
<path d="M86.119 26.052h3.038v-4.158h0.037c0.597 0.806 1.473 1.292 2.702 1.292 2.498 0 4.156-1.986 4.156-5.095 0-2.885-1.547-5.076-4.082-5.076-1.304 0-2.236 0.581-2.888 1.442h-0.056v-1.161h-2.907v12.756zM91.114 20.826c-1.305 0-2.050-1.068-2.050-2.622s0.671-2.735 1.994-2.735c1.304 0 1.919 1.086 1.919 2.735 0 1.63-0.708 2.622-1.863 2.622z"></path>
<path d="M100.997 23.186c2.498 0 4.342-1.086 4.342-3.184 0-2.454-1.975-2.885-3.653-3.166-1.211-0.225-2.292-0.318-2.292-0.993 0-0.599 0.578-0.88 1.323-0.88 0.838 0 1.416 0.262 1.528 1.124h2.795c-0.149-1.892-1.602-3.072-4.305-3.072-2.254 0-4.118 1.049-4.118 3.072 0 2.248 1.77 2.697 3.429 2.978 1.267 0.225 2.423 0.318 2.423 1.18 0 0.618-0.578 0.955-1.491 0.955-1.006 0-1.64-0.468-1.752-1.424h-2.87c0.094 2.117 1.845 3.409 4.64 3.409z"></path>
<path d="M109.466 23.167c1.322 0 2.162-0.524 2.851-1.461h0.055v1.18h2.907v-9.591h-3.038v5.357c0 1.143-0.634 1.929-1.677 1.929-0.969 0-1.435-0.581-1.435-1.63v-5.657h-3.018v6.294c0 2.135 1.155 3.578 3.354 3.578z"></path>
<path d="M116.601 22.886h3.038v-5.376c0-1.143 0.559-1.948 1.51-1.948 0.913 0 1.342 0.599 1.342 1.63v5.694h3.038v-5.376c0-1.143 0.541-1.948 1.51-1.948 0.913 0 1.342 0.599 1.342 1.63v5.694h3.038v-6.238c0-2.154-1.081-3.634-3.242-3.634-1.23 0-2.255 0.524-3 1.686h-0.038c-0.485-1.030-1.435-1.686-2.683-1.686-1.379 0-2.293 0.656-2.889 1.648h-0.056v-1.367h-2.907v9.591z"></path>
<path d="M15.608 31.472c8.577 0 15.529-6.989 15.529-15.61s-6.953-15.61-15.529-15.61c-8.577 0-15.529 6.989-15.529 15.61s6.953 15.61 15.529 15.61zM18.005 12.313c1.324-1.331 1.324-3.488 0-4.819s-3.47-1.331-4.794 0-1.324 3.488 0 4.819l2.397 2.409 2.397-2.409zM19.139 18.271c1.324 1.331 3.47 1.331 4.794 0s1.324-3.488 0-4.819c-1.324-1.331-3.47-1.331-4.794 0l-2.397 2.409 2.397 2.409zM18.005 24.23c1.324-1.331 1.324-3.488 0-4.819l-2.397-2.409-2.397 2.409c-1.324 1.331-1.324 3.488 0 4.819s3.47 1.331 4.794 0zM7.283 18.271c-1.324-1.331-1.324-3.488 0-4.819s3.47-1.331 4.794 0l2.397 2.409-2.397 2.409c-1.324 1.331-3.47 1.331-4.794 0z"></path>
</symbol>
<symbol id="Typev4" viewBox="0 0 131 32">
<title>Typev4</title>
<path d="M38.483 22.597h9.334v-2.81h-6.016v-10.583h-3.318v13.393z"></path>
<path d="M53.347 20.724c-1.331 0-2.024-1.161-2.024-2.903s0.693-2.922 2.024-2.922c1.331 0 2.043 1.18 2.043 2.922s-0.712 2.903-2.043 2.903zM53.366 22.897c3.093 0 5.117-2.192 5.117-5.076s-2.024-5.076-5.117-5.076c-3.074 0-5.136 2.192-5.136 5.076s2.062 5.076 5.136 5.076z"></path>
<path d="M63.836 25.912c1.424 0 2.68-0.318 3.524-1.068 0.768-0.693 1.274-1.742 1.274-3.184v-8.654h-2.924v1.030h-0.038c-0.562-0.806-1.424-1.311-2.699-1.311-2.38 0-4.030 1.986-4.030 4.795 0 2.941 2.005 4.552 4.161 4.552 1.162 0 1.893-0.468 2.455-1.105h0.075v0.955c0 1.161-0.544 1.836-1.837 1.836-1.012 0-1.518-0.431-1.687-0.937h-2.961c0.3 2.004 2.043 3.091 4.686 3.091zM63.817 19.806c-1.143 0-1.893-0.937-1.893-2.379 0-1.461 0.75-2.398 1.893-2.398 1.274 0 1.949 1.086 1.949 2.379 0 1.349-0.619 2.398-1.949 2.398z"></path>
<path d="M74.646 20.724c-1.331 0-2.024-1.161-2.024-2.903s0.694-2.922 2.024-2.922c1.331 0 2.043 1.18 2.043 2.922s-0.712 2.903-2.043 2.903zM74.665 22.897c3.093 0 5.116-2.192 5.116-5.076s-2.024-5.076-5.116-5.076c-3.074 0-5.136 2.192-5.136 5.076s2.062 5.076 5.136 5.076z"></path>
<path d="M80.674 22.597h3.055v-9.591h-3.055v9.591zM80.674 11.676h3.055v-2.473h-3.055v2.473z"></path>
<path d="M85.054 25.763h3.055v-4.158h0.038c0.599 0.805 1.48 1.292 2.718 1.292 2.511 0 4.179-1.986 4.179-5.095 0-2.885-1.555-5.076-4.105-5.076-1.312 0-2.249 0.581-2.905 1.442h-0.056v-1.161h-2.924v12.756zM90.078 20.536c-1.312 0-2.062-1.068-2.062-2.622s0.674-2.735 2.005-2.735c1.312 0 1.931 1.086 1.931 2.735 0 1.63-0.713 2.622-1.874 2.622z"></path>
<path d="M100.018 22.897c2.511 0 4.367-1.086 4.367-3.184 0-2.454-1.987-2.885-3.674-3.166-1.218-0.225-2.306-0.318-2.306-0.993 0-0.599 0.581-0.88 1.33-0.88 0.844 0 1.425 0.262 1.537 1.124h2.812c-0.15-1.892-1.612-3.072-4.33-3.072-2.268 0-4.142 1.049-4.142 3.072 0 2.248 1.781 2.697 3.449 2.978 1.274 0.225 2.437 0.318 2.437 1.18 0 0.618-0.582 0.955-1.5 0.955-1.012 0-1.649-0.468-1.762-1.424h-2.886c0.094 2.117 1.855 3.409 4.667 3.409z"></path>
<path d="M108.535 22.878c1.33 0 2.174-0.524 2.868-1.461h0.056v1.18h2.924v-9.591h-3.055v5.357c0 1.143-0.638 1.929-1.687 1.929-0.974 0-1.443-0.581-1.443-1.63v-5.657h-3.036v6.294c0 2.135 1.162 3.578 3.374 3.578z"></path>
<path d="M115.712 22.597h3.055v-5.376c0-1.143 0.562-1.948 1.518-1.948 0.918 0 1.35 0.599 1.35 1.63v5.694h3.054v-5.376c0-1.143 0.544-1.948 1.518-1.948 0.918 0 1.35 0.599 1.35 1.63v5.694h3.055v-6.238c0-2.154-1.087-3.634-3.262-3.634-1.237 0-2.268 0.524-3.018 1.686h-0.038c-0.487-1.030-1.443-1.686-2.698-1.686-1.387 0-2.306 0.656-2.906 1.648h-0.056v-1.367h-2.924v9.591z"></path>
<path d="M19.844 1.543l-3.072-0.823-2.588 9.654-2.337-8.716-3.072 0.823 2.525 9.417-6.289-6.285-2.248 2.247 6.898 6.894-8.59-2.3-0.823 3.070 9.386 2.513c-0.107-0.463-0.164-0.946-0.164-1.442 0-3.51 2.847-6.356 6.36-6.356s6.36 2.846 6.36 6.356c0 0.493-0.056 0.972-0.162 1.433l8.53 2.284 0.823-3.070-9.423-2.524 8.591-2.301-0.823-3.070-9.423 2.523 6.289-6.285-2.248-2.247-6.802 6.798 2.304-8.596z"></path>
<path d="M22.018 18.064c-0.263 1.113-0.819 2.112-1.582 2.913l6.18 6.176 2.249-2.247-6.846-6.842z"></path>
<path d="M20.374 21.042c-0.772 0.788-1.748 1.376-2.842 1.679l2.249 8.387 3.072-0.823-2.478-9.244z"></path>
<path d="M17.417 22.752c-0.508 0.13-1.040 0.2-1.588 0.2-0.587 0-1.156-0.080-1.696-0.229l-2.251 8.395 3.072 0.822 2.464-9.188z"></path>
<path d="M14.024 22.692c-1.077-0.318-2.036-0.914-2.792-1.704l-6.195 6.191 2.248 2.247 6.738-6.734z"></path>
<path d="M11.181 20.933c-0.743-0.795-1.285-1.782-1.542-2.877l-8.558 2.292 0.823 3.070 9.277-2.484z"></path>
</symbol>
<symbol id="Typev5" viewBox="0 0 133 32">
<title>Typev5</title>
<path d="M40.512 21.961h9.337v-2.81h-6.018v-10.583h-3.318v13.393z"></path>
<path d="M55.38 20.088c-1.331 0-2.025-1.161-2.025-2.903s0.694-2.922 2.025-2.922 2.044 1.18 2.044 2.922c0 1.742-0.712 2.903-2.044 2.903zM55.399 22.261c3.094 0 5.118-2.192 5.118-5.076s-2.025-5.076-5.118-5.076c-3.075 0-5.137 2.192-5.137 5.076s2.062 5.076 5.137 5.076z"></path>
<path d="M65.872 25.277c1.425 0 2.681-0.318 3.525-1.068 0.769-0.693 1.275-1.742 1.275-3.184v-8.654h-2.925v1.030h-0.038c-0.562-0.805-1.425-1.311-2.7-1.311-2.381 0-4.031 1.986-4.031 4.795 0 2.941 2.006 4.552 4.162 4.552 1.162 0 1.894-0.468 2.456-1.105h0.075v0.955c0 1.161-0.544 1.836-1.837 1.836-1.012 0-1.519-0.431-1.687-0.937h-2.962c0.3 2.004 2.044 3.091 4.687 3.091zM65.853 19.17c-1.144 0-1.894-0.937-1.894-2.379 0-1.461 0.75-2.398 1.894-2.398 1.275 0 1.95 1.086 1.95 2.379 0 1.349-0.619 2.398-1.95 2.398z"></path>
<path d="M76.685 20.088c-1.331 0-2.025-1.161-2.025-2.903s0.694-2.922 2.025-2.922 2.044 1.18 2.044 2.922c0 1.742-0.712 2.903-2.044 2.903zM76.704 22.261c3.094 0 5.118-2.192 5.118-5.076s-2.024-5.076-5.118-5.076c-3.075 0-5.137 2.192-5.137 5.076s2.062 5.076 5.137 5.076z"></path>
<path d="M82.714 21.961h3.056v-9.591h-3.056v9.591zM82.714 11.041h3.056v-2.473h-3.056v2.473z"></path>
<path d="M87.097 25.127h3.056v-4.158h0.037c0.6 0.806 1.482 1.292 2.719 1.292 2.512 0 4.181-1.986 4.181-5.095 0-2.885-1.557-5.076-4.106-5.076-1.312 0-2.25 0.581-2.906 1.442h-0.056v-1.161h-2.925v12.756zM92.121 19.901c-1.312 0-2.062-1.068-2.062-2.622s0.675-2.735 2.006-2.735c1.312 0 1.931 1.086 1.931 2.735 0 1.63-0.713 2.622-1.875 2.622z"></path>
<path d="M102.065 22.261c2.512 0 4.368-1.086 4.368-3.184 0-2.454-1.987-2.885-3.674-3.166-1.218-0.225-2.306-0.318-2.306-0.993 0-0.599 0.582-0.88 1.331-0.88 0.844 0 1.425 0.262 1.538 1.124h2.812c-0.15-1.892-1.612-3.072-4.33-3.072-2.269 0-4.144 1.049-4.144 3.072 0 2.248 1.782 2.697 3.45 2.978 1.274 0.225 2.437 0.318 2.437 1.18 0 0.618-0.581 0.955-1.5 0.955-1.012 0-1.65-0.468-1.762-1.424h-2.887c0.094 2.117 1.856 3.409 4.669 3.409z"></path>
<path d="M110.584 22.242c1.331 0 2.175-0.524 2.869-1.461h0.056v1.18h2.925v-9.591h-3.056v5.357c0 1.143-0.638 1.929-1.687 1.929-0.975 0-1.444-0.581-1.444-1.63v-5.657h-3.037v6.294c0 2.135 1.162 3.578 3.374 3.578z"></path>
<path d="M117.762 21.961h3.056v-5.376c0-1.143 0.562-1.948 1.518-1.948 0.918 0 1.35 0.599 1.35 1.63v5.694h3.056v-5.376c0-1.143 0.544-1.948 1.519-1.948 0.918 0 1.35 0.599 1.35 1.63v5.694h3.056v-6.238c0-2.154-1.087-3.634-3.262-3.634-1.238 0-2.268 0.524-3.018 1.686h-0.038c-0.487-1.030-1.443-1.686-2.699-1.686-1.388 0-2.306 0.656-2.906 1.648h-0.056v-1.367h-2.925v9.591z"></path>
<path d="M16.158 31.327c-8.629 0-15.624-6.989-15.624-15.61s6.995-15.61 15.624-15.61 15.624 6.989 15.624 15.61c0 8.621-6.995 15.61-15.624 15.61zM21.032 7.379c0.237-0.842-0.581-1.34-1.327-0.808l-10.426 7.421c-0.81 0.577-0.683 1.725 0.191 1.725h2.746v-0.021h5.351l-4.36 1.537-1.922 6.822c-0.237 0.842 0.58 1.34 1.327 0.808l10.426-7.421c0.81-0.577 0.682-1.725-0.191-1.725h-4.164l2.349-8.338z"></path>
</symbol>
<symbol id="Typev6" viewBox="0 0 138 32">
<title>Typev6</title>
<path d="M39.229 23.2h9.082v-2.586h-6.313v-12.076h-2.769v14.662z"></path>
<path d="M53.769 23.505c1.1 0 2.067-0.244 2.902-0.733 0.842-0.496 1.497-1.178 1.965-2.046 0.475-0.876 0.713-1.884 0.713-3.024 0-1.134-0.234-2.135-0.703-3.004-0.468-0.876-1.123-1.561-1.965-2.057-0.835-0.496-1.806-0.743-2.912-0.743-1.086 0-2.047 0.244-2.881 0.733s-1.49 1.171-1.965 2.047c-0.475 0.869-0.713 1.877-0.713 3.024 0 1.134 0.231 2.138 0.692 3.014 0.468 0.869 1.12 1.551 1.955 2.047s1.806 0.743 2.912 0.743zM53.769 20.919c-0.862 0-1.517-0.288-1.965-0.865-0.441-0.584-0.662-1.368-0.662-2.352 0-0.957 0.21-1.731 0.631-2.322 0.428-0.597 1.093-0.896 1.996-0.896 0.876 0 1.534 0.292 1.975 0.876 0.448 0.584 0.672 1.364 0.672 2.342 0 0.944-0.221 1.717-0.662 2.321-0.434 0.597-1.096 0.896-1.985 0.896z"></path>
<path d="M64.826 23.505c0.516 0 0.991-0.061 1.426-0.183 0.441-0.122 0.842-0.295 1.201-0.519v1.11c0.014 0.407-0.092 0.747-0.316 1.018-0.217 0.278-0.509 0.485-0.876 0.621-0.367 0.143-0.757 0.214-1.171 0.214-0.387 0-0.747-0.085-1.079-0.255-0.326-0.17-0.577-0.417-0.754-0.743l-2.566 1.242c0.421 0.713 1.022 1.286 1.802 1.721 0.781 0.441 1.639 0.662 2.576 0.662 0.808 0 1.558-0.109 2.25-0.326 0.692-0.21 1.276-0.533 1.751-0.967 0.482-0.434 0.811-0.988 0.988-1.66 0.061-0.238 0.102-0.479 0.122-0.723 0.027-0.238 0.041-0.492 0.041-0.764v-11.75h-2.423v0.611c-0.373-0.292-0.798-0.516-1.273-0.672-0.468-0.163-0.988-0.244-1.558-0.244-1.052 0-1.968 0.251-2.749 0.753s-1.388 1.191-1.823 2.067c-0.428 0.869-0.641 1.863-0.641 2.983 0 1.1 0.21 2.087 0.631 2.963 0.428 0.876 1.022 1.568 1.782 2.077s1.646 0.764 2.657 0.764zM65.274 21.041c-0.597 0-1.086-0.149-1.466-0.448s-0.662-0.699-0.845-1.201c-0.183-0.509-0.275-1.072-0.275-1.69 0-0.611 0.095-1.168 0.285-1.67 0.19-0.509 0.482-0.913 0.876-1.212 0.4-0.305 0.91-0.458 1.527-0.458 0.869 0 1.49 0.309 1.863 0.927 0.373 0.611 0.56 1.415 0.56 2.413s-0.19 1.806-0.57 2.423c-0.373 0.611-1.025 0.916-1.955 0.916z"></path>
<path d="M76.8 23.505c1.1 0 2.067-0.244 2.902-0.733 0.842-0.496 1.497-1.178 1.965-2.046 0.475-0.876 0.713-1.884 0.713-3.024 0-1.134-0.234-2.135-0.702-3.004-0.468-0.876-1.123-1.561-1.965-2.057-0.835-0.496-1.806-0.743-2.912-0.743-1.086 0-2.047 0.244-2.881 0.733s-1.49 1.171-1.965 2.047c-0.475 0.869-0.713 1.877-0.713 3.024 0 1.134 0.231 2.138 0.692 3.014 0.468 0.869 1.12 1.551 1.955 2.047s1.806 0.743 2.912 0.743zM76.8 20.919c-0.862 0-1.517-0.288-1.965-0.865-0.441-0.584-0.662-1.368-0.662-2.352 0-0.957 0.21-1.731 0.631-2.322 0.428-0.597 1.093-0.896 1.996-0.896 0.876 0 1.534 0.292 1.975 0.876 0.448 0.584 0.672 1.364 0.672 2.342 0 0.944-0.221 1.717-0.662 2.321-0.434 0.597-1.096 0.896-1.985 0.896z"></path>
<path d="M83.6 10.676h2.77v-2.444h-2.77v2.444zM83.6 23.2h2.77v-10.996h-2.77v10.996z"></path>
<path d="M88.18 28.087h2.79v-5.284c0.36 0.224 0.757 0.397 1.191 0.519 0.442 0.122 0.92 0.183 1.436 0.183 1.011 0 1.898-0.255 2.658-0.764s1.35-1.202 1.771-2.077c0.428-0.876 0.642-1.863 0.642-2.963 0-1.12-0.217-2.114-0.651-2.983-0.428-0.876-1.032-1.565-1.813-2.067s-1.697-0.753-2.749-0.753c-0.57 0-1.093 0.081-1.568 0.244-0.469 0.156-0.89 0.38-1.262 0.672v-0.611h-2.444v15.884zM93.149 21.041c-0.923 0-1.574-0.305-1.955-0.916-0.38-0.618-0.57-1.425-0.57-2.423s0.186-1.802 0.56-2.413c0.38-0.618 1.001-0.927 1.863-0.927 0.618 0 1.123 0.153 1.517 0.458 0.401 0.299 0.696 0.703 0.886 1.212 0.19 0.502 0.286 1.059 0.286 1.67 0 0.618-0.092 1.181-0.275 1.69-0.183 0.502-0.465 0.903-0.845 1.201s-0.869 0.448-1.466 0.448z"></path>
<path d="M103.685 23.505c1.438 0 2.566-0.322 3.38-0.967s1.222-1.531 1.222-2.657c0-0.855-0.265-1.531-0.794-2.026-0.523-0.496-1.412-0.906-2.668-1.232-0.855-0.217-1.494-0.394-1.914-0.53-0.414-0.136-0.689-0.268-0.825-0.397-0.129-0.129-0.193-0.288-0.193-0.479 0-0.319 0.152-0.563 0.458-0.733 0.313-0.17 0.723-0.238 1.232-0.204 1.079 0.081 1.67 0.543 1.772 1.385l2.83-0.509c-0.142-0.998-0.631-1.789-1.466-2.372-0.834-0.591-1.9-0.886-3.197-0.886-1.33 0-2.393 0.312-3.187 0.937s-1.191 1.466-1.191 2.525c0 0.842 0.275 1.507 0.825 1.996 0.55 0.482 1.497 0.896 2.841 1.242 0.794 0.21 1.378 0.38 1.751 0.509 0.38 0.129 0.625 0.261 0.733 0.397 0.109 0.129 0.163 0.302 0.163 0.519 0 0.346-0.136 0.618-0.407 0.815-0.271 0.19-0.658 0.285-1.161 0.285-0.611 0-1.117-0.146-1.517-0.438-0.394-0.292-0.649-0.696-0.764-1.212l-2.83 0.428c0.183 1.147 0.699 2.036 1.548 2.668 0.855 0.624 1.975 0.937 3.36 0.937z"></path>
<path d="M113.395 23.526c0.794 0 1.486-0.132 2.078-0.397s1.086-0.618 1.486-1.059v1.13h2.443v-10.996h-2.79v5.58c0 0.679-0.078 1.229-0.234 1.649-0.149 0.414-0.342 0.73-0.58 0.947-0.238 0.21-0.492 0.353-0.764 0.428s-0.526 0.112-0.763 0.112c-0.59 0-1.049-0.132-1.374-0.397-0.319-0.265-0.55-0.594-0.693-0.988s-0.227-0.784-0.254-1.171c-0.027-0.394-0.041-0.716-0.041-0.967v-5.193h-2.81v6.17c0 0.183 0.014 0.475 0.041 0.876s0.106 0.845 0.234 1.334c0.129 0.482 0.342 0.947 0.642 1.395 0.306 0.448 0.73 0.818 1.273 1.11s1.246 0.438 2.107 0.438z"></path>
<path d="M121.006 23.2h2.79v-6.659c0-0.631 0.173-1.144 0.519-1.537 0.353-0.4 0.818-0.601 1.395-0.601 0.604 0 1.076 0.204 1.415 0.611 0.346 0.4 0.519 0.964 0.519 1.69v6.496h2.77v-6.659c0-0.631 0.173-1.144 0.519-1.537 0.353-0.4 0.818-0.601 1.394-0.601 0.605 0 1.076 0.204 1.415 0.611 0.346 0.4 0.52 0.964 0.52 1.69v6.496h2.769v-7.229c0-1.201-0.322-2.172-0.967-2.912-0.638-0.747-1.585-1.12-2.841-1.12-0.706 0-1.354 0.153-1.945 0.458s-1.062 0.723-1.415 1.252c-0.285-0.516-0.692-0.93-1.222-1.242s-1.188-0.468-1.975-0.468c-0.666 0-1.276 0.132-1.833 0.397-0.557 0.258-1.018 0.614-1.385 1.069v-1.201h-2.443v10.996z"></path>
<path d="M16 0c-8.837 0-16 7.163-16 16 8.837 0 16-7.163 16-16z"></path>
<path d="M16 32c8.837 0 16-7.163 16-16-8.837 0-16 7.163-16 16z"></path>
<path d="M16 0c8.837 0 16 7.163 16 16-8.837 0-16-7.163-16-16z"></path>
<path d="M16 32c-8.837 0-16-7.163-16-16 8.837 0 16 7.163 16 16z"></path>
</symbol>
<symbol id="Typev7" viewBox="0 0 124 32">
<title>Typev7</title>
<path d="M36.87 10.070h3v12.13h-3v-12.13zM41.060 17.62c0-3 1.84-4.79 4.68-4.79s4.68 1.79 4.68 4.79c0 3-1.8 4.8-4.68 4.8s-4.68-1.75-4.68-4.8zM47.41 17.62c0-1.65-0.65-2.62-1.67-2.62s-1.66 1-1.66 2.62c0 1.62 0.63 2.6 1.66 2.6s1.67-0.92 1.67-2.59v-0.010zM51.55 22.79h2.88c0.137 0.304 0.369 0.557 0.661 0.719s0.628 0.226 0.959 0.181c1.14 0 1.74-0.62 1.74-1.52v-1.68h-0.060c-0.239 0.515-0.627 0.946-1.113 1.239s-1.050 0.432-1.617 0.401c-2.19 0-3.64-1.67-3.64-4.54s1.38-4.68 3.68-4.68c0.585-0.023 1.162 0.133 1.656 0.448s0.879 0.772 1.104 1.312v-1.67h3v9.1c0 2.19-1.93 3.55-4.78 3.55-2.65 0-4.3-1.19-4.47-2.85v-0.010zM57.8 17.61c0-1.46-0.67-2.38-1.73-2.38s-1.71 0.91-1.71 2.38c0 1.47 0.64 2.3 1.71 2.3s1.73-0.81 1.73-2.29v-0.010zM61.93 17.61c0-3 1.84-4.79 4.68-4.79s4.69 1.79 4.69 4.79c0 3-1.8 4.8-4.69 4.8s-4.68-1.74-4.68-4.79v-0.010zM68.28 17.61c0-1.65-0.65-2.62-1.67-2.62s-1.61 1.010-1.61 2.64c0 1.63 0.63 2.6 1.65 2.6s1.63-0.93 1.63-2.6v-0.020zM72.44 10.82c-0.008-0.303 0.074-0.601 0.236-0.857s0.396-0.458 0.673-0.581c0.277-0.123 0.584-0.16 0.883-0.108s0.575 0.192 0.794 0.401c0.219 0.209 0.371 0.479 0.437 0.775s0.042 0.604-0.068 0.887c-0.11 0.282-0.301 0.526-0.55 0.699s-0.543 0.269-0.846 0.275c-0.201 0.014-0.402-0.014-0.592-0.082s-0.363-0.174-0.51-0.312c-0.146-0.138-0.263-0.305-0.342-0.49s-0.119-0.385-0.117-0.586v-0.020zM72.44 13.020h3v9.18h-3v-9.18zM86.33 17.61c0 3-1.33 4.71-3.61 4.71-0.585 0.038-1.166-0.105-1.667-0.409s-0.896-0.755-1.133-1.291h-0.060v4.52h-3v-12.14h3v1.64h0.060c0.226-0.545 0.614-1.007 1.11-1.324s1.081-0.473 1.67-0.446c2.3 0.040 3.67 1.76 3.67 4.76l-0.040-0.020zM83.33 17.61c0-1.46-0.67-2.39-1.72-2.39s-1.72 0.94-1.73 2.39 0.68 2.38 1.73 2.38c1.050 0 1.72-0.91 1.72-2.36v-0.020zM91.48 12.81c2.49 0 4 1.18 4.070 3.070h-2.73c0-0.65-0.54-1.060-1.37-1.060s-1.2 0.32-1.2 0.79 0.33 0.62 1 0.76l1.92 0.39c1.83 0.39 2.61 1.13 2.61 2.52 0 1.9-1.73 3.12-4.28 3.12s-4.22-1.22-4.35-3.090h2.89c0.090 0.68 0.63 1.080 1.51 1.080s1.28-0.29 1.28-0.77c0-0.48-0.28-0.58-1-0.73l-1.73-0.37c-1.79-0.37-2.73-1.32-2.73-2.72 0.020-1.8 1.63-2.97 4.11-2.97v-0.020zM105.79 22.18h-2.89v-1.71h-0.060c-0.159 0.574-0.509 1.077-0.993 1.424s-1.072 0.519-1.667 0.486c-0.456 0.026-0.912-0.046-1.338-0.212s-0.81-0.42-1.129-0.747c-0.318-0.327-0.563-0.719-0.717-1.148s-0.214-0.888-0.177-1.342v-5.93h3v5.24c0 1.090 0.56 1.67 1.49 1.67 0.218 0 0.434-0.046 0.633-0.135 0.198-0.090 0.376-0.221 0.52-0.385s0.251-0.357 0.314-0.565c0.063-0.209 0.082-0.428 0.054-0.645v-5.18h3l-0.040 9.18zM107.24 13h2.9v1.77h0.060c0.159-0.566 0.502-1.064 0.974-1.415s1.048-0.536 1.636-0.525c0.598-0.048 1.193 0.131 1.666 0.502s0.788 0.905 0.884 1.498h0.060c0.181-0.599 0.557-1.121 1.068-1.483s1.127-0.544 1.752-0.517c0.408-0.014 0.814 0.059 1.192 0.212 0.379 0.153 0.72 0.385 1.003 0.679s0.501 0.645 0.64 1.029c0.138 0.384 0.195 0.793 0.165 1.2v6.25h-3v-5.45c0-1-0.45-1.46-1.29-1.46-0.187-0.002-0.374 0.037-0.544 0.113s-0.324 0.188-0.448 0.328-0.218 0.306-0.272 0.485c-0.055 0.179-0.070 0.368-0.046 0.554v5.43h-2.85v-5.49c0-0.92-0.45-1.42-1.27-1.42-0.189 0-0.377 0.040-0.549 0.118s-0.328 0.191-0.453 0.333c-0.126 0.142-0.22 0.308-0.278 0.489-0.056 0.181-0.074 0.372-0.050 0.56v5.41h-3l0.050-9.2z"></path>
<path d="M28.48 10.62c-0.509-1.164-1.182-2.248-2-3.22-1.208-1.48-2.717-2.687-4.425-3.541s-3.579-1.338-5.488-1.418-3.813 0.245-5.587 0.954c-1.774 0.709-3.378 1.786-4.706 3.159s-2.35 3.013-2.999 4.81c-0.649 1.797-0.91 3.711-0.766 5.616s0.69 3.758 1.602 5.437c0.912 1.679 2.169 3.146 3.688 4.304 0.975 0.758 2.052 1.374 3.2 1.83 1.609 0.659 3.331 0.999 5.070 1 3.589-0.008 7.029-1.439 9.566-3.979s3.962-5.982 3.964-9.571c0.003-1.852-0.379-3.683-1.12-5.38zM16.060 5.19c1.562-0 3.104 0.341 4.52 1-0.345 0.149-0.708 0.253-1.080 0.31-1.223 0.177-2.357 0.745-3.231 1.619s-1.442 2.007-1.619 3.231c-0.078 0.686-0.39 1.324-0.884 1.807s-1.139 0.78-1.826 0.843c-1.223 0.177-2.357 0.745-3.231 1.619s-1.442 2.007-1.619 3.231c-0.060 0.652-0.338 1.266-0.79 1.74-0.779-1.647-1.129-3.464-1.018-5.282s0.682-3.579 1.657-5.118c0.975-1.539 2.324-2.806 3.92-3.684s3.389-1.337 5.211-1.336l-0.010 0.020zM7.79 23c0.12-0.11 0.24-0.21 0.36-0.33 0.89-0.862 1.461-2.001 1.62-3.23 0.065-0.691 0.373-1.336 0.87-1.82 0.478-0.498 1.122-0.804 1.81-0.86 1.223-0.177 2.357-0.745 3.231-1.619s1.442-2.007 1.619-3.231c0.043-0.722 0.353-1.403 0.87-1.91 0.49-0.488 1.14-0.783 1.83-0.83 1.124-0.155 2.172-0.654 3-1.43 0.943 0.782 1.741 1.723 2.36 2.78-0.038 0.051-0.082 0.098-0.13 0.14-0.477 0.502-1.12 0.815-1.81 0.88-1.225 0.174-2.36 0.741-3.234 1.616s-1.442 2.010-1.616 3.234c-0.070 0.688-0.377 1.331-0.867 1.82s-1.134 0.792-1.823 0.86c-1.227 0.176-2.364 0.743-3.244 1.616s-1.453 2.008-1.636 3.234c-0.054 0.489-0.222 0.958-0.49 1.37-1.026-0.609-1.945-1.383-2.72-2.29zM16.060 26.86c-1.015 0.001-2.025-0.14-3-0.42 0.334-0.622 0.551-1.3 0.64-2 0.070-0.687 0.375-1.329 0.863-1.817s1.13-0.793 1.817-0.863c1.225-0.175 2.361-0.742 3.237-1.616s1.446-2.009 1.623-3.234c0.070-0.687 0.375-1.329 0.863-1.817s1.13-0.793 1.817-0.863c0.922-0.12 1.801-0.463 2.56-1 0.422 1.598 0.472 3.271 0.146 4.891s-1.018 3.144-2.024 4.456c-1.006 1.311-2.299 2.374-3.78 3.108s-3.11 1.119-4.762 1.125v0.050z"></path>
</symbol>
<symbol id="Typev8" viewBox="0 0 149 32">
<title>Typev8</title>
<path d="M23.828 14.262c-0.403 0.407-0.711 0.898-0.903 1.438s-0.263 1.116-0.208 1.687l-0.019-0.019c0.057 0.672-0.034 1.348-0.265 1.981s-0.596 1.208-1.071 1.685c-0.475 0.477-1.048 0.844-1.679 1.075s-1.305 0.322-1.974 0.266l0.019 0.019c-0.801-0.075-1.605 0.1-2.303 0.501s-1.256 1.008-1.598 1.738c-0.342 0.731-0.451 1.549-0.312 2.344s0.519 1.528 1.088 2.098c0.569 0.57 1.299 0.951 2.092 1.090s1.608 0.029 2.336-0.315c0.728-0.344 1.332-0.904 1.731-1.605s0.572-1.508 0.497-2.312l0.020 0.019c-0.056-0.672 0.034-1.348 0.264-1.981s0.596-1.208 1.071-1.685c0.475-0.477 1.048-0.844 1.679-1.075s1.305-0.322 1.974-0.266l-0.020-0.019c0.654 0.059 1.313-0.049 1.914-0.313s1.127-0.677 1.528-1.199 0.663-1.138 0.764-1.789c0.1-0.651 0.035-1.318-0.189-1.937s-0.601-1.172-1.095-1.606c-0.494-0.434-1.089-0.737-1.73-0.879s-1.308-0.119-1.938 0.066c-0.63 0.185-1.204 0.527-1.667 0.994h-0.003z"></path>
<path d="M15.987 19.878l-0.020-0.019c0.569 0.058 1.144-0.013 1.682-0.205s1.028-0.503 1.433-0.909c0.404-0.406 0.714-0.896 0.906-1.437s0.263-1.117 0.206-1.688l0.020 0.019c-0.057-0.672 0.034-1.348 0.264-1.981s0.596-1.208 1.071-1.685c0.475-0.477 1.048-0.844 1.679-1.075s1.305-0.322 1.974-0.265l-0.020-0.019c0.801 0.076 1.605-0.099 2.304-0.499s1.257-1.007 1.599-1.738c0.342-0.731 0.452-1.549 0.313-2.344s-0.518-1.528-1.087-2.099c-0.569-0.571-1.299-0.952-2.091-1.091s-1.608-0.029-2.336 0.314-1.332 0.904-1.731 1.605c-0.399 0.701-0.573 1.508-0.497 2.312l-0.019-0.020c0.057 0.672-0.033 1.348-0.264 1.981s-0.596 1.208-1.071 1.685c-0.475 0.477-1.048 0.844-1.679 1.075s-1.305 0.322-1.974 0.265l0.019 0.020c-0.569-0.057-1.144 0.013-1.682 0.205s-1.028 0.503-1.432 0.909-0.714 0.897-0.906 1.437c-0.192 0.54-0.263 1.117-0.206 1.688l-0.019-0.019c0.056 0.672-0.034 1.348-0.265 1.981s-0.596 1.208-1.071 1.685c-0.475 0.477-1.048 0.844-1.679 1.075s-1.304 0.322-1.974 0.266l0.019 0.019c-0.801-0.076-1.605 0.099-2.304 0.499s-1.257 1.007-1.599 1.738c-0.342 0.731-0.452 1.549-0.313 2.344s0.518 1.528 1.087 2.099c0.569 0.571 1.299 0.952 2.092 1.091s1.608 0.029 2.336-0.314c0.728-0.344 1.333-0.904 1.731-1.605s0.573-1.508 0.497-2.312l0.020 0.019c-0.057-0.672 0.034-1.348 0.265-1.981s0.596-1.208 1.071-1.685c0.475-0.477 1.048-0.844 1.679-1.075s1.305-0.322 1.974-0.266z"></path>
<path d="M8.864 17.738c0.403-0.407 0.711-0.898 0.903-1.438s0.263-1.116 0.207-1.687l0.020 0.019c-0.056-0.672 0.034-1.348 0.265-1.982s0.597-1.209 1.072-1.685c0.475-0.477 1.048-0.844 1.68-1.075s1.305-0.322 1.975-0.265l-0.020-0.019c0.801 0.075 1.605-0.099 2.303-0.499s1.256-1.007 1.598-1.737c0.342-0.73 0.451-1.549 0.313-2.344s-0.518-1.528-1.086-2.098c-0.569-0.571-1.299-0.951-2.091-1.090s-1.608-0.029-2.335 0.314-1.332 0.903-1.731 1.604c-0.399 0.701-0.573 1.508-0.498 2.311l-0.019-0.019c0.056 0.672-0.034 1.348-0.265 1.981s-0.596 1.208-1.071 1.685c-0.475 0.477-1.048 0.844-1.679 1.075s-1.305 0.322-1.974 0.266l0.019 0.019c-0.654-0.059-1.312 0.049-1.914 0.313s-1.127 0.677-1.527 1.199c-0.4 0.522-0.663 1.138-0.763 1.789s-0.035 1.318 0.189 1.937c0.225 0.619 0.601 1.172 1.095 1.606s1.089 0.737 1.73 0.879c0.641 0.142 1.308 0.119 1.938-0.066s1.204-0.527 1.667-0.994h-0.002z"></path>
<path d="M41.788 7.099h3.157v15.417h-3.157v-15.417z"></path>
<path d="M46.733 17.236c-0.004-1.108 0.319-2.192 0.929-3.116s1.479-1.644 2.498-2.071c1.019-0.427 2.141-0.541 3.224-0.328s2.079 0.745 2.861 1.526c0.782 0.782 1.315 1.779 1.532 2.865s0.108 2.213-0.314 3.237c-0.421 1.024-1.136 1.899-2.054 2.515s-1.997 0.945-3.101 0.945c-0.733 0.008-1.46-0.13-2.139-0.407s-1.296-0.687-1.815-1.206c-0.519-0.519-0.93-1.137-1.209-1.817s-0.419-1.409-0.414-2.145zM54.73 17.236c-0.013-0.478-0.166-0.941-0.44-1.331s-0.657-0.692-1.1-0.865c-0.444-0.174-0.928-0.212-1.393-0.111s-0.89 0.338-1.222 0.68c-0.332 0.342-0.556 0.775-0.644 1.245s-0.036 0.955 0.149 1.395c0.185 0.44 0.496 0.816 0.892 1.080s0.862 0.405 1.338 0.405c0.326 0.009 0.65-0.050 0.952-0.174s0.575-0.308 0.803-0.543c0.227-0.235 0.404-0.514 0.518-0.82s0.164-0.633 0.147-0.96z"></path>
<path d="M70.467 11.956v10.027c0 3.548-2.757 5.047-5.556 5.047-0.985 0.074-1.972-0.126-2.852-0.577s-1.618-1.138-2.135-1.983l2.693-1.563c0.217 0.44 0.563 0.804 0.992 1.042s0.92 0.338 1.407 0.288c0.311 0.043 0.629 0.016 0.928-0.080s0.573-0.259 0.802-0.476c0.228-0.217 0.405-0.483 0.517-0.777s0.157-0.611 0.131-0.925v-0.965c-0.37 0.454-0.84 0.814-1.374 1.053s-1.116 0.348-1.699 0.32c-1.388-0.044-2.705-0.628-3.672-1.629s-1.507-2.34-1.507-3.734c0-1.394 0.54-2.733 1.507-3.734s2.283-1.585 3.672-1.629c0.584-0.028 1.165 0.082 1.699 0.32s1.004 0.599 1.374 1.053v-1.077l3.073 0.002zM67.396 17.024c0.021-0.51-0.11-1.016-0.378-1.451s-0.658-0.78-1.122-0.99c-0.464-0.21-0.98-0.276-1.482-0.189s-0.966 0.322-1.333 0.676c-0.367 0.354-0.621 0.81-0.727 1.31s-0.062 1.020 0.128 1.494c0.19 0.474 0.518 0.88 0.94 1.166s0.92 0.438 1.429 0.437c0.332 0.023 0.665-0.024 0.977-0.137s0.598-0.292 0.838-0.523c0.24-0.231 0.429-0.51 0.555-0.819s0.186-0.641 0.176-0.974z"></path>
<path d="M72.255 17.236c-0.004-1.108 0.319-2.192 0.929-3.116s1.48-1.644 2.498-2.071c1.019-0.427 2.141-0.541 3.224-0.328s2.079 0.745 2.861 1.526c0.782 0.782 1.316 1.779 1.533 2.865s0.108 2.213-0.314 3.237c-0.422 1.024-1.136 1.899-2.054 2.515s-1.997 0.945-3.101 0.945c-0.733 0.008-1.46-0.13-2.139-0.407s-1.296-0.687-1.815-1.206c-0.519-0.519-0.93-1.137-1.209-1.817s-0.419-1.409-0.414-2.145zM80.252 17.236c-0.013-0.478-0.166-0.941-0.44-1.331s-0.657-0.692-1.1-0.865c-0.444-0.174-0.928-0.212-1.393-0.111s-0.89 0.338-1.222 0.68c-0.332 0.342-0.556 0.775-0.644 1.245s-0.036 0.955 0.149 1.395 0.496 0.816 0.892 1.080c0.397 0.264 0.862 0.405 1.338 0.405 0.326 0.009 0.65-0.050 0.952-0.174s0.576-0.308 0.803-0.543c0.227-0.235 0.404-0.514 0.518-0.82s0.164-0.633 0.146-0.96z"></path>
<path d="M84.881 9.126c0-0.376 0.111-0.743 0.319-1.056s0.504-0.556 0.85-0.7c0.346-0.144 0.726-0.182 1.094-0.108s0.705 0.254 0.97 0.52 0.445 0.605 0.518 0.973c0.073 0.369 0.035 0.751-0.108 1.098s-0.386 0.644-0.698 0.853-0.678 0.32-1.052 0.32c-0.501-0.005-0.98-0.207-1.334-0.562s-0.555-0.836-0.56-1.339zM85.2 11.956h3.158v10.56h-3.162l0.005-10.56z"></path>
<path d="M101.987 17.236c0.037 0.698-0.065 1.396-0.298 2.055s-0.594 1.264-1.062 1.782c-0.467 0.518-1.033 0.938-1.662 1.236s-1.312 0.468-2.007 0.501c-0.586 0.032-1.17-0.067-1.712-0.29s-1.028-0.564-1.422-0.999v5.217h-3.157v-14.783h3.157v0.992c0.394-0.434 0.88-0.775 1.422-0.998s1.126-0.322 1.712-0.29c0.695 0.033 1.378 0.203 2.008 0.501s1.194 0.718 1.662 1.237c0.467 0.518 0.828 1.124 1.061 1.783s0.334 1.357 0.298 2.055zM98.83 17.236c-0.012-0.494-0.17-0.974-0.452-1.379s-0.678-0.717-1.136-0.898c-0.459-0.181-0.96-0.221-1.442-0.117s-0.922 0.348-1.266 0.702c-0.344 0.354-0.576 0.802-0.667 1.288s-0.038 0.988 0.153 1.443c0.191 0.456 0.513 0.844 0.923 1.118s0.892 0.419 1.385 0.419c0.338 0.015 0.675-0.042 0.99-0.167s0.6-0.315 0.836-0.558c0.236-0.243 0.418-0.534 0.535-0.853s0.165-0.659 0.141-0.998z"></path>
<path d="M111.729 19.347c0 2.429-2.104 3.463-4.376 3.463-0.918 0.083-1.84-0.111-2.646-0.559s-1.461-1.129-1.878-1.954l2.735-1.563c0.11 0.381 0.348 0.713 0.673 0.94s0.718 0.335 1.113 0.306c0.757 0 1.136-0.233 1.136-0.654 0-1.163-5.178-0.549-5.178-4.203 0-2.303 1.937-3.463 4.126-3.463 0.822-0.026 1.637 0.17 2.358 0.567s1.324 0.982 1.744 1.692l-2.694 1.457c-0.118-0.277-0.314-0.512-0.565-0.677s-0.545-0.253-0.844-0.252c-0.548 0-0.885 0.213-0.885 0.591 0.005 1.204 5.181 0.401 5.181 4.308z"></path>
<path d="M123.259 11.956v10.56h-3.156v-0.993c-0.365 0.438-0.827 0.783-1.35 1.007s-1.090 0.32-1.658 0.281c-2.126 0-3.933-1.52-3.933-4.373v-6.482h3.157v6.018c-0.026 0.252 0.002 0.506 0.084 0.745s0.214 0.458 0.388 0.641 0.386 0.325 0.621 0.417c0.234 0.092 0.486 0.132 0.738 0.117 1.157 0 1.957-0.675 1.957-2.175v-5.76l3.153-0.003z"></path>
<path d="M141.36 16.032v6.483h-3.157v-6.209c0-1.056-0.505-1.731-1.514-1.731-1.052 0-1.642 0.739-1.642 1.985v5.955h-3.155v-6.209c0-1.056-0.505-1.731-1.516-1.731-1.052 0-1.641 0.739-1.641 1.985v5.955h-3.157v-10.56h3.157v0.971c0.327-0.431 0.757-0.772 1.249-0.993s1.033-0.315 1.571-0.273c0.54-0.027 1.078 0.088 1.561 0.332s0.894 0.61 1.195 1.061c0.35-0.472 0.813-0.848 1.346-1.091s1.12-0.347 1.705-0.302c2.416 0.001 3.998 1.732 3.998 4.372z"></path>
<path d="M144.030 11.891c1.294 0 2.342-1.053 2.342-2.351s-1.049-2.351-2.342-2.351c-1.294 0-2.342 1.053-2.342 2.351s1.049 2.351 2.342 2.351z"></path>
</symbol>
</defs>
</svg>
